<?xml version="1.0" encoding="utf-8"?>
<!-- Generator: Adobe Illustrator 18.0.0, SVG Export Plug-In . SVG Version: 6.00 Build 0)  -->
<!DOCTYPE svg PUBLIC "-//W3C//DTD SVG 1.1//EN" "http://www.w3.org/Graphics/SVG/1.1/DTD/svg11.dtd">
<svg version="1.1" id="Layer_1" xmlns="http://www.w3.org/2000/svg" xmlns:xlink="http://www.w3.org/1999/xlink" x="0px" y="0px"
	 width="1420.759px" height="196.253px" viewBox="0 0 1420.759 196.253" enable-background="new 0 0 1420.759 196.253"
	 xml:space="preserve">
<g>
	
		<linearGradient id="SVGID_1_" gradientUnits="userSpaceOnUse" x1="234.0795" y1="157.3611" x2="241.394" y2="60.8098" gradientTransform="matrix(1 0 0 -1 0 198)">
		<stop  offset="0" style="stop-color:#00A79A"/>
		<stop  offset="1" style="stop-color:#E81D5D"/>
	</linearGradient>
	<path fill="url(#SVGID_1_)" d="M189.121,95.49c-10.443,4.873-13.503,14.91-9.972,24.674c3.537,9.763,15.953,11.707,23.035,8.771
		c7.084-2.937,13.347-17.012,14.189-18.201c0.84-1.184,7.158-11.175,13.182-7.871c6.022,3.308,2.384,12.174-5.857,21.695
		c-2.97,3.432-8.735,7.471-6.613,11.41l9.63,17.876l9.634,17.877l10.665-17.28l10.665-17.28c2.873-4.654-6.203-13.76-10.39-19.07
		c-2.727-3.46-4.284-7.212-2.942-11.617c1.337-4.403,6.105-3.21,9.64-1.327c3.533,1.885,8.336,9.333,9.683,12.273
		c1.345,2.941,4.284,7.213,6.397,8.78c2.114,1.564,9.238,3.796,13.904,2.439c6.25-1.82,9.286-5.081,12.577-10.018
		c3.288-4.937,2.073-12.033-0.197-15.7c-6.318-10.189-19.072-8.018-25.596-7.565c-6.523,0.456-14.372-0.852-14.818-6.517
		c-0.448-5.662,9.128-7.18,21.235-7.723c12.109-0.545,15.353-5.032,19.414-11.344c4.056-6.317-3.382-21.176-10.029-22.732
		c-14.386-3.36-22.857,8.567-24.973,12.62c-2.117,4.054-7.325,17.507-13.418,14.012c-6.096-3.492-1.456-13.918-0.499-18.176
		c0.957-4.257,13.627-20.79,1.433-27.776s-28.675-1.521-29.953,6.966c-1.279,8.487,4.135,15.269,9.129,22.641
		c5.654,8.354,2.744,15.584,0.744,16.568c-1.998,0.984-9.892-2.683-13.189-7.898c-3.298-5.218-6.67-16.238-16.534-18.286
		c-9.86-2.045-21.203,5.554-21.686,16.114c-0.482,10.554,12.62,19.351,25.078,18.026c12.452-1.325,18.35,0.516,17.751,5.714
		C218.991,100.185,199.566,90.613,189.121,95.49z"/>
	<g>
		<path fill="#FFFFFF" d="M361.137,52.376c11.094,0,19.631,2.993,26.84,9.425c7.765,6.877,12.202,16.969,12.202,27.507
			c0,10.206-4.326,20.188-11.867,27.175c-4.772,4.436-10.983,7.655-17.415,8.984c-2.993,0.557-7.43,0.887-12.533,0.887h-10.317
			c-5.765,0-8.096-0.442-10.312-1.995c-2.772-1.774-4.326-3.77-5.103-6.657c-0.442-1.664-0.442-2.883-0.442-7.986V69.01
			c0-6.211,0-6.873,0.552-8.538c1.775-5.324,6.322-8.096,13.42-8.096H361.137z M356.59,103.615c8.427-0.11,10.427-0.442,13.31-2.437
			c3.659-2.662,5.99-7.209,5.99-11.76c0-5.435-3.108-10.423-7.876-12.754c-2.331-1.108-4.883-1.554-9.429-1.554
			c-0.331,0-1.108,0-1.995,0V103.615L356.59,103.615z"/>
		<path fill="#FFFFFF" d="M418.048,126.911c-6.767,0-12.091-5.324-12.091-12.202c0-2.11,0.556-4.326,1.554-6.432l23.18-49.138
			c2.106-4.547,6.322-7.319,11.204-7.319c4.988,0,9.204,2.772,11.425,7.43l23.291,49.69c0.997,1.885,1.444,3.995,1.444,5.88
			c0,6.652-5.549,12.091-12.312,12.091c-5.66,0-8.984-2.662-12.422-10.206h-22.629C427.588,123.913,423.924,126.911,418.048,126.911
			z M445.665,99.069l-3.77-8.873l-3.775,8.873H445.665z"/>
		<path fill="#FFFFFF" d="M527.091,66.794c0-4.882,0.442-7.099,2.216-9.65c2.11-3.218,5.99-5.324,9.985-5.324
			c3.659,0,6.989,1.664,9.314,4.436c2.111,2.662,2.887,5.213,2.887,9.76v45.253c0,5.88-0.557,8.317-2.666,11.094
			c-2.216,2.883-5.765,4.547-9.536,4.547c-3.885,0-7.099-1.664-9.65-4.993l-19.301-24.734v15.53c0,4.878-0.667,7.099-2.772,9.76
			c-2.331,2.772-5.765,4.436-9.429,4.436c-3.77,0-7.43-1.774-9.76-4.772c-1.995-2.772-2.547-4.988-2.547-10.423V64.909
			c0-7.876,5.098-13.089,12.754-13.089c3.549,0,6.322,1.444,9.094,4.882l19.411,23.843V66.794z"/>
		<path fill="#FFFFFF" d="M625.927,118.479c-7.209,6.212-16.413,9.761-25.843,9.761c-21.627,0-39.152-17.3-39.152-38.711
			c0-21.516,17.636-38.927,39.263-38.927c8.988,0,17.636,3.104,24.734,8.984c5.99,4.768,8.984,9.761,8.984,14.639
			c0,6.657-5.435,12.202-12.197,12.202c-2.887,0-5.99-1.219-7.654-2.993l-3.549-3.885c-2.662-2.883-6.542-4.436-10.537-4.436
			c-8.096,0-14.528,6.322-14.528,14.418c0,7.99,6.432,14.422,14.418,14.422c3.995,0,7.986-1.774,10.868-4.882l2.552-2.662
			c1.995-2.106,5.324-3.549,8.432-3.549c6.432,0,12.197,5.66,12.197,11.981C633.913,109.275,631.14,113.932,625.927,118.479z"/>
		<path fill="#FFFFFF" d="M677.961,103.505c5.324,0,7.655,0.667,10.206,2.772c2.552,2.221,3.991,5.324,3.991,8.653
			c0,3.439-1.549,6.767-3.991,8.873c-2.441,1.995-4.547,2.551-10.091,2.551h-18.969c-5.655,0-7.209-0.221-9.314-0.998
			c-3.775-1.554-6.211-4.547-6.988-8.873c-0.335-1.554-0.445-2.221-0.445-7.319V69.01c0-6.211,0.11-6.984,1.112-9.314
			c0.998-2.772,3.324-4.993,5.875-6.1c2.772-1.108,3.328-1.219,10.538-1.219h14.643c6.984,0,7.65,0.11,9.314,0.552
			c5.103,1.333,8.432,5.549,8.432,10.648c0,3.549-1.444,6.877-3.995,8.984c-2.216,1.889-4.768,2.662-9.314,2.662h-12.202v5.103h9.65
			c5.99,0,9.871,3.549,9.871,8.763c0,2.772-1.223,5.324-3.218,6.989c-1.885,1.444-3.659,1.885-7.54,1.885h-8.763v5.545
			L677.961,103.505L677.961,103.505z"/>
		<path fill="#FFFFFF" d="M796.656,118.479c-7.209,6.212-16.413,9.761-25.843,9.761c-21.628,0-39.154-17.3-39.154-38.711
			c0-21.516,17.636-38.927,39.265-38.927c8.988,0,17.636,3.104,24.734,8.984c5.99,4.768,8.984,9.761,8.984,14.639
			c0,6.657-5.435,12.202-12.197,12.202c-2.887,0-5.99-1.219-7.654-2.993l-3.549-3.885c-2.662-2.883-6.542-4.436-10.537-4.436
			c-8.096,0-14.528,6.322-14.528,14.418c0,7.99,6.432,14.422,14.418,14.422c3.995,0,7.986-1.774,10.868-4.882l2.551-2.662
			c1.995-2.106,5.324-3.549,8.432-3.549c6.432,0,12.197,5.66,12.197,11.981C804.642,109.275,801.869,113.932,796.656,118.479z"/>
		<path fill="#FFFFFF" d="M850.018,50.601c21.627,0,39.042,17.3,39.042,38.706s-17.525,38.932-38.932,38.932
			c-21.737,0-39.042-17.415-39.042-39.263C811.086,67.681,828.391,50.601,850.018,50.601z M850.128,104.061
			c7.986,0,14.533-6.657,14.533-14.643c0-7.871-6.547-14.308-14.533-14.308S835.6,81.432,835.6,89.307
			C835.6,97.404,842.142,104.061,850.128,104.061z"/>
		<path fill="#FFFFFF" d="M951.521,58.362c1.885-3.88,6.211-6.542,10.758-6.542c2.998,0,6.326,1.333,8.431,3.328
			s3.103,4.101,3.77,8.096l8.431,47.694c0.331,1.549,0.442,2.993,0.442,4.101c0,6.657-5.324,11.87-11.977,11.87
			c-6.211,0-11.094-3.775-12.091-9.319l-2.772-13.866l-4.772,13.089c-2.437,6.657-6.763,10.096-12.533,10.096
			c-5.986,0-9.871-3.108-12.422-9.986l-4.878-13.199l-1.995,11.76c-1.222,7.099-5.88,11.425-12.202,11.425
			c-7.209,0-12.312-5.549-12.312-13.31c0-1.002,0.11-1.999,0.221-2.998l8.431-47.359c1.219-7.099,5.655-11.425,11.977-11.425
			c5.213,0,10.096,3.218,12.202,8.207l10.978,24.514L951.521,58.362z"/>
		<path fill="#FFFFFF" d="M1016.307,112.824c0,8.427-4.878,14.087-12.202,14.087c-4.101,0-7.986-2.11-10.202-5.549
			c-1.885-2.993-2.106-4.211-2.106-11.645V66.459c0-5.324,0.773-7.761,3.324-10.423c2.552-2.551,5.435-3.659,9.981-3.659h10.206
			c11.867,0,16.97,1.329,22.629,5.655c6.542,4.993,10.423,12.868,10.423,21.075s-3.991,16.082-10.758,21.185
			c-4.988,3.77-9.981,5.324-17.19,5.324h-4.105L1016.307,112.824L1016.307,112.824z M1016.307,82.986
			c5.88,0.335,8.096-0.777,8.096-4.105c0-2.437-2.216-3.88-5.875-3.88c-0.445,0-1.444,0-2.221,0V82.986z"/>
		<path fill="#FFFFFF" d="M1059.354,126.911c-6.767,0-12.092-5.324-12.092-12.202c0-2.11,0.557-4.326,1.554-6.432l23.18-49.138
			c2.106-4.547,6.322-7.319,11.204-7.319c4.988,0,9.204,2.772,11.425,7.43l23.291,49.69c0.998,1.885,1.444,3.995,1.444,5.88
			c0,6.652-5.549,12.091-12.312,12.091c-5.66,0-8.984-2.662-12.422-10.206h-22.629
			C1068.893,123.913,1065.229,126.911,1059.354,126.911z M1086.97,99.069l-3.77-8.873l-3.775,8.873H1086.97z"/>
		<path fill="#FFFFFF" d="M1125.028,109.495c0-6.211,4.883-11.094,11.094-11.094c2.993,0,5.545,1.002,8.648,3.549
			c5.324,4.105,5.99,4.551,7.766,4.551c1.885,0,3.108-1.334,3.108-3.218c0-1.333-0.557-2.216-1.885-3.108
			c-0.667-0.442-1.002-0.662-4.882-2.106c-1.995-0.667-3.991-1.329-5.99-2.106c-10.758-3.77-16.082-10.758-16.082-21.075
			c0-14.418,11.094-24.289,27.175-24.289c13.31,0,23.732,7.099,23.732,16.192c0,5.88-3.991,10.091-9.536,10.091
			c-3.328,0-5.99-1.108-10.096-4.211c-2.547-2.11-3.77-2.666-5.099-2.666c-1.554,0-2.887,1.334-2.887,2.887
			c0,2.216,1.554,3.214,7.324,5.103c6.322,1.885,12.312,4.878,15.746,7.761c4.547,3.77,7.434,10.427,7.434,17.415
			c0,6.653-2.552,13.089-6.989,17.636c-4.993,4.988-11.645,7.43-20.743,7.43C1137.119,128.239,1125.028,120.033,1125.028,109.495z"
			/>
		<path fill="#FFFFFF" d="M1187.595,109.495c0-6.211,4.883-11.094,11.094-11.094c2.993,0,5.545,1.002,8.648,3.549
			c5.324,4.105,5.99,4.551,7.766,4.551c1.885,0,3.108-1.334,3.108-3.218c0-1.333-0.557-2.216-1.889-3.108
			c-0.662-0.442-0.998-0.662-4.878-2.106c-1.996-0.667-3.995-1.329-5.99-2.106c-10.758-3.77-16.082-10.758-16.082-21.075
			c0-14.418,11.094-24.289,27.175-24.289c13.31,0,23.737,7.099,23.737,16.192c0,5.88-3.995,10.091-9.54,10.091
			c-3.328,0-5.99-1.108-10.096-4.211c-2.552-2.11-3.77-2.666-5.099-2.666c-1.554,0-2.887,1.334-2.887,2.887
			c0,2.216,1.554,3.214,7.324,5.103c6.322,1.885,12.307,4.878,15.746,7.761c4.551,3.77,7.434,10.427,7.434,17.415
			c0,6.653-2.552,13.089-6.989,17.636c-4.993,4.988-11.645,7.43-20.739,7.43C1199.686,128.239,1187.595,120.033,1187.595,109.495z"
			/>
	</g>
</g>
</svg>
