<?xml version="1.0" encoding="utf-8"?>
<!-- Generator: Adobe Illustrator 18.0.0, SVG Export Plug-In . SVG Version: 6.00 Build 0)  -->
<!DOCTYPE svg PUBLIC "-//W3C//DTD SVG 1.1//EN" "http://www.w3.org/Graphics/SVG/1.1/DTD/svg11.dtd">
<svg version="1.1" id="Layer_1" xmlns="http://www.w3.org/2000/svg" xmlns:xlink="http://www.w3.org/1999/xlink" x="0px" y="0px"
	 width="1560.027px" height="733.256px" viewBox="-390.007 -183.346 1560.027 733.256"
	 enable-background="new -390.007 -183.346 1560.027 733.256" xml:space="preserve">
<g>
	<path fill="#FFFFFF" d="M-32.885,549.91c-48.382,0-87.744-39.362-87.744-87.744c0-48.38,39.362-87.742,87.744-87.742
		s87.744,39.362,87.744,87.742C54.859,510.55,15.497,549.91-32.885,549.91z M-32.885,390.424c-39.56,0-71.744,32.184-71.744,71.742
		c0,39.56,32.184,71.744,71.744,71.744s71.744-32.184,71.744-71.744C38.859,422.608,6.675,390.424-32.885,390.424z"/>
	<g>
		<path fill="#FFFFFF" d="M-89.771,451.398h9.338c5.042,0,8.53,2.334,8.53,7.72c0,5.542-2.988,7.968-8.31,7.968h-3.458v7.782h-6.1
			V451.398z M-83.673,462.168h1.028c2.21,0,4.39,0,4.39-2.864c0-2.958-2.024-2.988-4.39-2.988h-1.028V462.168z"/>
		<path fill="#FFFFFF" d="M-54.281,460.456v-9.058h6.102v23.47h-6.102v-9.618h-8.808v9.618h-6.102v-23.47h6.102v9.058H-54.281z"/>
		<path fill="#FFFFFF" d="M-19.411,462.698c0,7.594-5.448,12.95-12.98,12.95s-12.98-5.354-12.98-12.95
			c0-7.098,6.226-12.078,12.98-12.078C-25.635,450.62-19.411,455.6-19.411,462.698z M-39.019,462.728
			c0,4.046,2.988,7.004,6.628,7.004c3.642,0,6.63-2.958,6.63-7.004c0-3.238-2.988-6.194-6.63-6.194
			C-36.031,456.534-39.019,459.492-39.019,462.728z"/>
		<path fill="#FFFFFF" d="M-16.571,451.398h6.102l11.174,14.35h0.062v-14.35h6.102v23.47H0.767l-11.174-14.38h-0.062v14.38h-6.102
			V451.398z"/>
		<path fill="#FFFFFF" d="M16.963,456.564v3.922h6.878v5.166h-6.878v4.046h7.252v5.166H10.861v-23.466h13.354v5.166H16.963z"/>
	</g>
	<path fill="#FFFFFF" d="M713.795,535.324c-78.056,0-141.558-63.502-141.558-141.558c0-78.054,63.502-141.556,141.558-141.556
		c78.054,0,141.556,63.502,141.556,141.556C855.351,471.822,791.849,535.324,713.795,535.324z M713.795,268.21
		c-69.232,0-125.558,56.324-125.558,125.556s56.326,125.558,125.558,125.558s125.556-56.326,125.556-125.558
		S783.027,268.21,713.795,268.21z"/>
	<g>
		<path fill="#FFFFFF" d="M627.055,398.826h-6.102v-23.47h6.102V398.826z"/>
		<path fill="#FFFFFF" d="M631.041,375.356h6.102l11.176,14.35h0.06v-14.35h6.102v23.47h-6.102l-11.174-14.38h-0.062v14.38h-6.102
			L631.041,375.356L631.041,375.356z"/>
		<path fill="#FFFFFF" d="M658.473,375.356h8.654c6.538,0,11.922,5.136,11.922,11.736c0,6.6-5.416,11.736-11.922,11.736h-8.654
			V375.356z M664.575,393.66h1.37c3.642,0,6.756-1.992,6.756-6.568c0-4.202-2.772-6.568-6.694-6.568h-1.432V393.66z"/>
		<path fill="#FFFFFF" d="M687.989,398.826h-6.1v-23.47h6.1V398.826z"/>
		<path fill="#FFFFFF" d="M701.813,389.612l5.696-14.256h6.63l-10.024,23.47h-4.73l-9.868-23.47h6.628L701.813,389.612z"/>
		<path fill="#FFFFFF" d="M721.771,398.826h-6.102v-23.47h6.102V398.826z"/>
		<path fill="#FFFFFF" d="M725.759,375.356h8.654c6.536,0,11.922,5.136,11.922,11.736c0,6.6-5.416,11.736-11.922,11.736h-8.654
			V375.356z M731.861,393.66h1.37c3.642,0,6.754-1.992,6.754-6.568c0-4.202-2.77-6.568-6.692-6.568h-1.432V393.66z"/>
		<path fill="#FFFFFF" d="M769.531,375.356v13.198c0,3.02-0.124,6.008-2.458,8.28c-1.96,1.93-5.042,2.614-7.782,2.614
			s-5.822-0.684-7.784-2.614c-2.334-2.272-2.458-5.26-2.458-8.28v-13.198h6.102v12.358c0,3.05,0.218,6.38,4.14,6.38
			s4.138-3.332,4.138-6.38v-12.358H769.531z"/>
		<path fill="#FFFFFF" d="M779.375,394.748l-1.62,4.078h-6.474l9.028-23.47h6.662l8.84,23.47h-6.506l-1.526-4.078H779.375z
			 M783.639,382.608h-0.06l-2.522,7.47h5.072L783.639,382.608z"/>
		<path fill="#FFFFFF" d="M803.819,393.66h7.314v5.166h-13.416v-23.47h6.102V393.66z"/>
		<path fill="#FFFFFF" d="M663.807,408.72v13.198c0,3.02-0.124,6.008-2.458,8.28c-1.96,1.93-5.042,2.616-7.782,2.616
			s-5.82-0.686-7.782-2.616c-2.336-2.272-2.46-5.26-2.46-8.28V408.72h6.102v12.358c0,3.05,0.218,6.38,4.14,6.38
			s4.14-3.332,4.14-6.38V408.72H663.807z"/>
		<path fill="#FFFFFF" d="M680.561,414.76c-1.12-0.934-2.552-1.556-4.046-1.556c-1.12,0-2.614,0.654-2.614,1.96
			c0,1.37,1.648,1.9,2.708,2.242l1.556,0.468c3.27,0.964,5.792,2.614,5.792,6.412c0,2.334-0.56,4.732-2.43,6.318
			c-1.836,1.556-4.294,2.21-6.66,2.21c-2.958,0-5.852-0.996-8.25-2.678l2.616-4.918c1.526,1.338,3.33,2.428,5.416,2.428
			c1.432,0,2.958-0.716,2.958-2.366c0-1.712-2.396-2.304-3.704-2.678c-3.83-1.088-6.352-2.084-6.352-6.63
			c0-4.762,3.394-7.876,8.094-7.876c2.366,0,5.262,0.748,7.346,1.93L680.561,414.76z"/>
		<path fill="#FFFFFF" d="M692.955,413.888v3.922h6.88v5.166h-6.88v4.046h7.254v5.166h-13.354v-23.47h13.354v5.168h-7.254V413.888z"
			/>
		<path fill="#FFFFFF" d="M723.495,432.19h-7.594l-5.76-9.028h-0.062v9.028h-6.1v-23.47h9.12c4.638,0,8.156,2.21,8.156,7.222
			c0,3.238-1.806,6.04-5.136,6.63L723.495,432.19z M710.079,419.242h0.592c1.992,0,4.234-0.374,4.234-2.926
			s-2.242-2.926-4.234-2.926h-0.592V419.242z"/>
		<path fill="#FFFFFF" d="M741.809,428.112l-1.62,4.078h-6.474l9.028-23.47h6.662l8.84,23.47h-6.506l-1.526-4.078H741.809z
			 M746.073,415.972h-0.06l-2.522,7.47h5.072L746.073,415.972z"/>
		<path fill="#FFFFFF" d="M760.149,408.72h9.338c5.042,0,8.53,2.334,8.53,7.72c0,5.542-2.988,7.968-8.31,7.968h-3.456v7.782h-6.102
			L760.149,408.72L760.149,408.72z M766.249,419.49h1.028c2.208,0,4.388,0,4.388-2.864c0-2.958-2.024-2.988-4.388-2.988h-1.028
			V419.49z"/>
		<path fill="#FFFFFF" d="M780.731,408.72h9.338c5.042,0,8.53,2.334,8.53,7.72c0,5.542-2.988,7.968-8.31,7.968h-3.456v7.782h-6.102
			L780.731,408.72L780.731,408.72z M786.831,419.49h1.028c2.208,0,4.388,0,4.388-2.864c0-2.958-2.024-2.988-4.388-2.988h-1.028
			V419.49z"/>
	</g>
	<g>
		<path fill="#FFFFFF" d="M966.911-42.724h8.654c6.538,0,11.922,5.136,11.922,11.736s-5.416,11.736-11.922,11.736h-8.654V-42.724z
			 M973.013-24.42h1.372c3.64,0,6.754-1.992,6.754-6.568c0-4.202-2.77-6.568-6.692-6.568h-1.434V-24.42z"/>
		<path fill="#FFFFFF" d="M996.305-23.332l-1.62,4.078h-6.472l9.026-23.47h6.662l8.84,23.47h-6.504l-1.528-4.078H996.305z
			 M1000.569-35.472h-0.062l-2.52,7.47h5.074L1000.569-35.472z"/>
		<path fill="#FFFFFF" d="M1014.647-42.724h6.102l11.172,14.35h0.062v-14.35h6.102v23.47h-6.102l-11.172-14.38h-0.062v14.38h-6.102
			V-42.724z"/>
		<path fill="#FFFFFF" d="M1058.853-34.848c-1.242-1.682-3.266-2.584-5.352-2.584c-3.734,0-6.258,2.864-6.258,6.506
			c0,3.704,2.55,6.38,6.352,6.38c1.992,0,3.984-0.964,5.258-2.49v7.316c-2.024,0.622-3.484,1.088-5.382,1.088
			c-3.27,0-6.382-1.244-8.808-3.456c-2.586-2.334-3.77-5.384-3.77-8.872c0-3.206,1.214-6.288,3.458-8.592
			c2.304-2.366,5.632-3.796,8.934-3.796c1.96,0,3.766,0.436,5.57,1.182v7.318H1058.853z"/>
		<path fill="#FFFFFF" d="M1068.729-37.558v3.922h6.878v5.166h-6.878v4.046h7.254v5.166h-13.356v-23.466h13.356v5.166H1068.729z"/>
		<path fill="#FFFFFF" d="M972.035-9.36h9.338c5.042,0,8.53,2.334,8.53,7.72c0,5.542-2.988,7.968-8.31,7.968h-3.458v7.782h-6.1
			V-9.36z M978.135,1.41h1.028c2.21,0,4.39,0,4.39-2.864c0-2.958-2.024-2.988-4.39-2.988h-1.028V1.41z"/>
		<path fill="#FFFFFF" d="M996.289,10.032l-1.62,4.078h-6.472l9.026-23.47h6.662l8.84,23.47h-6.504l-1.528-4.078H996.289z
			 M1000.553-2.108h-0.062l-2.52,7.47h5.074L1000.553-2.108z"/>
		<path fill="#FFFFFF" d="M1034.147,14.11h-7.594l-5.758-9.028h-0.062v9.028h-6.102V-9.36h9.122c4.636,0,8.152,2.21,8.152,7.222
			c0,3.238-1.804,6.04-5.132,6.63L1034.147,14.11z M1020.733,1.162h0.59c1.992,0,4.234-0.374,4.234-2.926s-2.242-2.926-4.234-2.926
			h-0.59V1.162z"/>
		<path fill="#FFFFFF" d="M1045.143,14.11h-6.102V-4.192h-5.042V-9.36h16.188v5.168h-5.042V14.11H1045.143z"/>
		<path fill="#FFFFFF" d="M1049.815-9.36h7.316l4.39,6.382l4.386-6.382h7.316l-8.652,12.202V14.11h-6.102V2.842L1049.815-9.36z"/>
	</g>
	<path fill="#FFFFFF" d="M-300.723,414.488c-48.382,0-87.744-39.362-87.744-87.744S-349.105,239-300.723,239
		s87.744,39.362,87.744,87.744S-252.341,414.488-300.723,414.488z M-300.723,255c-39.56,0-71.744,32.184-71.744,71.744
		s32.184,71.744,71.744,71.744s71.744-32.184,71.744-71.744S-261.163,255-300.723,255z"/>
	<g>
		<path fill="#FFFFFF" d="M-357.611,315.974h9.338c5.042,0,8.528,2.334,8.528,7.72c0,5.542-2.988,7.968-8.31,7.968h-3.456v7.782
			h-6.1V315.974z M-351.509,326.746h1.028c2.21,0,4.39,0,4.39-2.864c0-2.958-2.024-2.988-4.39-2.988h-1.028V326.746z"/>
		<path fill="#FFFFFF" d="M-322.119,325.034v-9.058h6.102v23.47h-6.102v-9.618h-8.808v9.618h-6.102v-23.47h6.102v9.058
			L-322.119,325.034L-322.119,325.034z"/>
		<path fill="#FFFFFF" d="M-287.249,327.274c0,7.594-5.448,12.95-12.98,12.95c-7.532,0-12.98-5.354-12.98-12.95
			c0-7.098,6.226-12.078,12.98-12.078C-293.473,315.196-287.249,320.176-287.249,327.274z M-306.857,327.306
			c0,4.046,2.988,7.004,6.628,7.004c3.642,0,6.63-2.958,6.63-7.004c0-3.238-2.988-6.194-6.63-6.194
			C-303.869,321.112-306.857,324.068-306.857,327.306z"/>
		<path fill="#FFFFFF" d="M-284.409,315.974h6.102l11.174,14.35h0.062v-14.35h6.102v23.47h-6.102l-11.174-14.38h-0.062v14.38h-6.102
			V315.974z"/>
		<path fill="#FFFFFF" d="M-250.875,321.142v3.922h6.878v5.166h-6.878v4.046h7.252v5.166h-13.354v-23.47h13.354v5.166h-7.252
			V321.142z"/>
	</g>
	<path fill="#FFFFFF" d="M-58.425,333.792c-48.382,0-87.744-39.362-87.744-87.744s39.362-87.744,87.744-87.744
		s87.744,39.362,87.744,87.744S-10.043,333.792-58.425,333.792z M-58.425,174.302c-39.56,0-71.744,32.184-71.744,71.744
		s32.184,71.744,71.744,71.744s71.744-32.184,71.744-71.744S-18.865,174.302-58.425,174.302z"/>
	<g>
		<path fill="#FFFFFF" d="M-115.313,235.278h9.338c5.042,0,8.53,2.334,8.53,7.72c0,5.542-2.988,7.968-8.31,7.968h-3.458v7.782h-6.1
			V235.278z M-109.213,246.048h1.028c2.21,0,4.39,0,4.39-2.864c0-2.958-2.024-2.988-4.39-2.988h-1.028V246.048z"/>
		<path fill="#FFFFFF" d="M-79.823,244.336v-9.058h6.102v23.47h-6.102v-9.618h-8.808v9.618h-6.102v-23.47h6.102v9.058H-79.823z"/>
		<path fill="#FFFFFF" d="M-44.951,246.578c0,7.594-5.448,12.95-12.98,12.95s-12.98-5.354-12.98-12.95
			c0-7.098,6.226-12.078,12.98-12.078C-51.175,234.5-44.951,239.48-44.951,246.578z M-64.561,246.608
			c0,4.046,2.988,7.004,6.628,7.004c3.642,0,6.63-2.958,6.63-7.004c0-3.238-2.988-6.194-6.63-6.194
			C-61.573,240.414-64.561,243.372-64.561,246.608z"/>
		<path fill="#FFFFFF" d="M-42.111,235.278h6.102l11.174,14.35h0.062v-14.35h6.102v23.47h-6.102l-11.174-14.38h-0.062v14.38h-6.102
			V235.278z"/>
		<path fill="#FFFFFF" d="M-8.579,240.444v3.922h6.878v5.166h-6.878v4.046h7.252v5.166h-13.354v-23.466h13.354v5.166L-8.579,240.444
			L-8.579,240.444z"/>
	</g>
	<path fill="#FFFFFF" d="M243.793,44.036c-61.834,0-112.138-50.304-112.138-112.138S181.959-180.24,243.793-180.24
		s112.14,50.304,112.14,112.138S305.627,44.036,243.793,44.036z M243.793-164.24c-53.01,0-96.138,43.128-96.138,96.138
		s43.128,96.138,96.138,96.138c53.012,0,96.14-43.128,96.14-96.138S296.805-164.24,243.793-164.24z"/>
	<g>
		<path fill="#FFFFFF" d="M175.447-78.872h6.102l11.176,14.35h0.06v-14.35h6.102v23.47h-6.102l-11.174-14.38h-0.062v14.38h-6.102
			V-78.872z"/>
		<path fill="#FFFFFF" d="M227.657-67.572c0,7.594-5.448,12.95-12.978,12.95c-7.534,0-12.98-5.354-12.98-12.95
			c0-7.098,6.224-12.078,12.98-12.078C221.431-79.65,227.657-74.67,227.657-67.572z M208.047-67.54c0,4.046,2.988,7.004,6.63,7.004
			c3.64,0,6.628-2.958,6.628-7.004c0-3.238-2.988-6.194-6.628-6.194C211.035-73.736,208.047-70.778,208.047-67.54z"/>
		<path fill="#FFFFFF" d="M230.497-78.872h8.654c6.538,0,11.922,5.136,11.922,11.736S245.657-55.4,239.151-55.4h-8.654V-78.872z
			 M236.599-60.568h1.37c3.642,0,6.754-1.992,6.754-6.568c0-4.202-2.77-6.568-6.692-6.568h-1.432V-60.568z"/>
		<path fill="#FFFFFF" d="M260.013-73.704v3.922h6.878v5.166h-6.878v4.046h7.252v5.166h-13.354v-23.468h13.354v5.166h-7.252V-73.704
			z"/>
		<path fill="#FFFFFF" d="M278.041-58.42c0,1.992-1.62,3.642-3.642,3.642s-3.64-1.65-3.64-3.642c0-2.024,1.618-3.642,3.64-3.642
			S278.041-60.444,278.041-58.42z"/>
		<path fill="#FFFFFF" d="M293.077-78.872v15.844c0,4.95-2.584,8.248-7.782,8.248c-2.616,0-4.638-1.306-6.04-3.456l3.518-3.704
			c0.684,0.934,1.65,1.992,2.458,1.992c1.804,0,1.742-2.148,1.742-3.456v-15.47h6.104V-78.872z"/>
		<path fill="#FFFFFF" d="M309.829-72.832c-1.122-0.934-2.552-1.556-4.046-1.556c-1.122,0-2.614,0.654-2.614,1.96
			c0,1.37,1.648,1.9,2.708,2.242l1.556,0.466c3.268,0.966,5.79,2.616,5.79,6.414c0,2.334-0.56,4.732-2.428,6.318
			c-1.836,1.556-4.294,2.21-6.66,2.21c-2.958,0-5.854-0.996-8.25-2.676l2.616-4.918c1.526,1.338,3.33,2.428,5.416,2.428
			c1.432,0,2.958-0.716,2.958-2.366c0-1.712-2.396-2.304-3.704-2.676c-3.83-1.09-6.352-2.086-6.352-6.63
			c0-4.762,3.392-7.876,8.094-7.876c2.366,0,5.26,0.748,7.346,1.93L309.829-72.832z"/>
	</g>
	<path fill="#FFFFFF" d="M-302.263,217.158c-48.382,0-87.744-39.362-87.744-87.744s39.362-87.744,87.744-87.744
		s87.744,39.362,87.744,87.744S-253.881,217.158-302.263,217.158z M-302.263,57.672c-39.56,0-71.744,32.182-71.744,71.742
		s32.184,71.744,71.744,71.744s71.744-32.184,71.744-71.744S-262.703,57.672-302.263,57.672z"/>
	<g>
		<path fill="#FFFFFF" d="M-359.151,118.644h9.338c5.042,0,8.528,2.334,8.528,7.72c0,5.542-2.988,7.968-8.31,7.968h-3.456v7.782
			h-6.1C-359.151,142.114-359.151,118.644-359.151,118.644z M-353.049,129.416h1.028c2.21,0,4.39,0,4.39-2.864
			c0-2.958-2.024-2.988-4.39-2.988h-1.028V129.416z"/>
		<path fill="#FFFFFF" d="M-323.659,127.704v-9.058h6.102v23.47h-6.102v-9.618h-8.808v9.618h-6.102v-23.47h6.102v9.058H-323.659z"/>
		<path fill="#FFFFFF" d="M-288.789,129.944c0,7.594-5.448,12.95-12.98,12.95s-12.98-5.354-12.98-12.95
			c0-7.098,6.226-12.078,12.98-12.078C-295.013,117.866-288.789,122.846-288.789,129.944z M-308.397,129.976
			c0,4.046,2.988,7.004,6.628,7.004c3.642,0,6.63-2.958,6.63-7.004c0-3.238-2.988-6.194-6.63-6.194
			C-305.409,123.782-308.397,126.738-308.397,129.976z"/>
		<path fill="#FFFFFF" d="M-285.949,118.644h6.102l11.174,14.35h0.062v-14.35h6.102v23.47h-6.102l-11.174-14.38h-0.062v14.38h-6.102
			C-285.949,142.114-285.949,118.644-285.949,118.644z"/>
		<path fill="#FFFFFF" d="M-252.415,123.812v3.922h6.878v5.166h-6.878v4.046h7.252v5.166h-13.354v-23.47h13.354v5.166h-7.252
			V123.812z"/>
	</g>
	
		<rect x="-58.643" y="-188.218" transform="matrix(-0.3253 -0.9456 0.9456 -0.3253 -79.4202 -30.647)" fill="#FFFFFF" width="16" height="402.456"/>
	
		<rect x="83.127" y="-27.531" transform="matrix(-0.7688 -0.6394 0.6394 -0.7688 95.7881 239.1863)" fill="#FFFFFF" width="15.999" height="259.621"/>
	
		<rect x="94.836" y="1.346" transform="matrix(-0.89 -0.456 0.456 -0.89 99.066 441.863)" fill="#FFFFFF" width="16" height="415.269"/>
	
		<rect x="-63.956" y="-136.69" transform="matrix(-0.5913 -0.8064 0.8064 -0.5913 -179.8596 134.0777)" fill="#FFFFFF" width="15.999" height="498.605"/>
	
		<rect x="254.586" y="147.975" transform="matrix(-0.7229 -0.6909 0.6909 -0.7229 696.606 591.3019)" fill="#FFFFFF" width="424.557" height="15.999"/>
	
		<rect x="914.13" y="65.295" transform="matrix(-0.7673 -0.6412 0.6412 -0.7673 1577.2933 735.7988)" fill="#FFFFFF" width="15.999" height="32.928"/>
	
		<rect x="864.603" y="-21.869" transform="matrix(-0.1585 -0.9874 0.9874 -0.1585 1016.2401 855.3143)" fill="#FFFFFF" width="16.001" height="32.931"/>
	
		<rect x="875.885" y="-111.894" transform="matrix(-0.8493 -0.5279 0.5279 -0.8493 1705.0731 278.9397)" fill="#FFFFFF" width="32.93" height="15.998"/>
	
		<rect x="955.324" y="-173.255" transform="matrix(-0.2948 -0.9556 0.9556 -0.2948 1416.1979 714.621)" fill="#FFFFFF" width="32.928" height="15.999"/>
	
		<rect x="1064.066" y="-175.844" transform="matrix(-0.9147 -0.4041 0.4041 -0.9147 2117.1052 128.0625)" fill="#FFFFFF" width="16.002" height="32.93"/>
	
		<rect x="1135.866" y="-105.561" transform="matrix(-0.4253 -0.9051 0.9051 -0.4253 1710.969 908.2831)" fill="#FFFFFF" width="16.001" height="32.931"/>
	
		<rect x="1135.534" y="2.939" transform="matrix(-0.9621 -0.2726 0.2726 -0.9621 2257.3831 335.5059)" fill="#FFFFFF" width="32.929" height="16"/>
	
		<rect x="1076.161" y="83.775" transform="matrix(-0.5475 -0.8368 0.8368 -0.5475 1614.0422 1056.3369)" fill="#FFFFFF" width="32.93" height="16.002"/>
	<g>
		<path fill="#FFFFFF" d="M844.281,356.308l-3.312-15.652c3.794-0.802,7.6-1.704,11.306-2.674l4.054,15.476
			C852.377,354.494,848.325,355.454,844.281,356.308z"/>
		<path fill="#FFFFFF" d="M878.649,346.534l-5.418-15.054c6.85-2.464,13.678-5.274,20.294-8.344l6.734,14.516
			C893.213,340.918,885.943,343.908,878.649,346.534z M920.993,326.884l-7.996-13.86c6.326-3.65,12.546-7.622,18.488-11.802
			l9.208,13.086C934.363,318.764,927.735,322.994,920.993,326.884z M959.377,298.824l-11.692-10.922
			c2.128-2.28,3.844-4.52,5.24-6.844c1.668-2.776,2.862-5.838,3.452-8.86l15.704,3.062c-0.942,4.83-2.822,9.684-5.44,14.04
			C964.659,292.598,962.283,295.714,959.377,298.824z M953.039,257.252c-2.04-2.638-4.738-5.13-7.596-7.772
			c-2.722-2.516-5.54-5.12-8.06-8.106l12.226-10.32c1.88,2.228,4.218,4.388,6.692,6.674c3.216,2.97,6.542,6.042,9.398,9.742
			L953.039,257.252z M945.901,217.154l-15.504-3.958c2.296-8.998,8.132-16.782,12.958-22.556l12.278,10.258
			C952.181,205.03,947.417,211.208,945.901,217.154z M970.591,183.59l-12.55-9.922c4.428-5.602,8.542-11.586,12.232-17.788
			l13.75,8.182C979.975,170.866,975.457,177.436,970.591,183.59z M994.779,142.958l-14.696-6.326
			c2.842-6.604,5.278-13.456,7.24-20.36l15.39,4.374C1000.565,128.212,997.895,135.718,994.779,142.958z"/>
		<path fill="#FFFFFF" d="M1007.685,97.36l-15.836-2.29c0.542-3.758,0.958-7.582,1.232-11.364l15.958,1.156
			C1008.739,89.022,1008.283,93.228,1007.685,97.36z"/>
	</g>
</g>
</svg>
