<?xml version="1.0" encoding="utf-8"?>
<!-- Generator: Adobe Illustrator 18.0.0, SVG Export Plug-In . SVG Version: 6.00 Build 0)  -->
<!DOCTYPE svg PUBLIC "-//W3C//DTD SVG 1.1//EN" "http://www.w3.org/Graphics/SVG/1.1/DTD/svg11.dtd">
<svg version="1.1" id="Layer_1" xmlns="http://www.w3.org/2000/svg" xmlns:xlink="http://www.w3.org/1999/xlink" x="0px" y="0px"
	 width="1508.592px" height="928.764px" viewBox="-377.148 -232.191 1508.592 928.764"
	 enable-background="new -377.148 -232.191 1508.592 928.764" xml:space="preserve">
<path fill="#FFFFFF" d="M207.214,683.093c-48.382,0-87.744-39.362-87.744-87.744s39.362-87.744,87.744-87.744
	s87.744,39.362,87.744,87.744S255.596,683.093,207.214,683.093z M207.214,523.603c-39.56,0-71.744,32.184-71.744,71.744
	s32.184,71.744,71.744,71.744s71.744-32.184,71.744-71.744S246.774,523.603,207.214,523.603z"/>
<g>
	<path fill="#FFFFFF" d="M150.326,584.579h9.338c5.042,0,8.53,2.334,8.53,7.72c0,5.542-2.988,7.968-8.31,7.968h-3.458v7.782h-6.1
		L150.326,584.579L150.326,584.579z M156.426,595.349h1.028c2.21,0,4.39,0,4.39-2.864c0-2.958-2.024-2.988-4.39-2.988h-1.028
		V595.349z"/>
	<path fill="#FFFFFF" d="M185.816,593.637v-9.058h6.102v23.47h-6.102v-9.618h-8.808v9.618h-6.102v-23.47h6.102v9.058H185.816z"/>
	<path fill="#FFFFFF" d="M220.688,595.879c0,7.594-5.448,12.95-12.98,12.95s-12.98-5.354-12.98-12.95
		c0-7.098,6.226-12.078,12.98-12.078C214.464,583.801,220.688,588.781,220.688,595.879z M201.078,595.911
		c0,4.046,2.988,7.004,6.628,7.004c3.642,0,6.63-2.958,6.63-7.004c0-3.238-2.988-6.194-6.63-6.194
		C204.066,589.715,201.078,592.673,201.078,595.911z"/>
	<path fill="#FFFFFF" d="M223.528,584.579h6.102l11.174,14.35h0.062v-14.35h6.102v23.47h-6.102l-11.174-14.38h-0.062v14.38h-6.102
		V584.579z"/>
	<path fill="#FFFFFF" d="M257.06,589.747v3.922h6.878v5.166h-6.878v4.046h7.252v5.166h-13.354v-23.47h13.354v5.166h-7.252V589.747z"
		/>
</g>
<path fill="#FFFFFF" d="M675.22,559.493c-78.054,0-141.556-63.502-141.556-141.556c0-78.056,63.502-141.558,141.556-141.558
	c78.056,0,141.558,63.502,141.558,141.558C816.778,495.991,753.276,559.493,675.22,559.493z M675.22,292.377
	c-69.232,0-125.556,56.326-125.556,125.558s56.324,125.556,125.556,125.556s125.558-56.324,125.558-125.556
	S744.452,292.377,675.22,292.377z"/>
<g>
	<path fill="#FFFFFF" d="M588.48,422.995h-6.102v-23.47h6.102V422.995z"/>
	<path fill="#FFFFFF" d="M592.466,399.525h6.102l11.176,14.35h0.06v-14.35h6.102v23.47h-6.102l-11.174-14.38h-0.062v14.38h-6.102
		V399.525z"/>
	<path fill="#FFFFFF" d="M619.898,399.525h8.654c6.538,0,11.922,5.136,11.922,11.736c0,6.6-5.416,11.736-11.922,11.736h-8.654
		V399.525z M626,417.827h1.37c3.642,0,6.756-1.992,6.756-6.568c0-4.202-2.772-6.568-6.694-6.568H626V417.827z"/>
	<path fill="#FFFFFF" d="M649.414,422.995h-6.1v-23.47h6.1V422.995z"/>
	<path fill="#FFFFFF" d="M663.238,413.781l5.696-14.256h6.63l-10.024,23.47h-4.73l-9.868-23.47h6.628L663.238,413.781z"/>
	<path fill="#FFFFFF" d="M683.198,422.995h-6.102v-23.47h6.102V422.995z"/>
	<path fill="#FFFFFF" d="M687.186,399.525h8.654c6.536,0,11.922,5.136,11.922,11.736c0,6.6-5.416,11.736-11.922,11.736h-8.654
		V399.525z M693.286,417.827h1.37c3.642,0,6.754-1.992,6.754-6.568c0-4.202-2.77-6.568-6.692-6.568h-1.432V417.827z"/>
	<path fill="#FFFFFF" d="M730.956,399.525v13.198c0,3.02-0.124,6.008-2.458,8.28c-1.96,1.93-5.042,2.614-7.782,2.614
		s-5.822-0.684-7.784-2.614c-2.334-2.272-2.458-5.26-2.458-8.28v-13.198h6.102v12.358c0,3.05,0.218,6.38,4.14,6.38
		s4.138-3.332,4.138-6.38v-12.358H730.956z"/>
	<path fill="#FFFFFF" d="M740.8,418.917l-1.62,4.078h-6.474l9.028-23.47h6.662l8.84,23.47h-6.506l-1.526-4.078H740.8z
		 M745.064,406.777h-0.06l-2.522,7.47h5.072L745.064,406.777z"/>
	<path fill="#FFFFFF" d="M765.244,417.827h7.314v5.166h-13.416v-23.47h6.102V417.827z"/>
	<path fill="#FFFFFF" d="M625.232,432.889v13.198c0,3.02-0.124,6.008-2.458,8.28c-1.96,1.93-5.042,2.616-7.782,2.616
		s-5.82-0.686-7.782-2.616c-2.336-2.272-2.46-5.26-2.46-8.28v-13.198h6.102v12.358c0,3.05,0.218,6.38,4.14,6.38
		s4.14-3.332,4.14-6.38v-12.358H625.232z"/>
	<path fill="#FFFFFF" d="M641.986,438.927c-1.12-0.934-2.552-1.556-4.046-1.556c-1.12,0-2.614,0.654-2.614,1.96
		c0,1.37,1.648,1.9,2.708,2.242l1.556,0.468c3.27,0.964,5.792,2.614,5.792,6.412c0,2.334-0.56,4.732-2.43,6.318
		c-1.836,1.556-4.294,2.21-6.66,2.21c-2.958,0-5.852-0.996-8.25-2.678l2.616-4.918c1.526,1.338,3.33,2.428,5.416,2.428
		c1.432,0,2.958-0.716,2.958-2.366c0-1.712-2.396-2.304-3.704-2.678c-3.83-1.088-6.352-2.084-6.352-6.63
		c0-4.762,3.394-7.876,8.094-7.876c2.366,0,5.262,0.748,7.346,1.93L641.986,438.927z"/>
	<path fill="#FFFFFF" d="M654.38,438.057v3.922h6.88v5.166h-6.88v4.046h7.254v5.166H648.28v-23.468h13.354v5.168L654.38,438.057
		L654.38,438.057z"/>
	<path fill="#FFFFFF" d="M684.922,456.359h-7.594l-5.76-9.028h-0.062v9.028h-6.1v-23.47h9.12c4.638,0,8.156,2.21,8.156,7.222
		c0,3.238-1.806,6.04-5.136,6.63L684.922,456.359z M671.506,443.409h0.592c1.992,0,4.234-0.374,4.234-2.926
		s-2.242-2.926-4.234-2.926h-0.592V443.409z"/>
	<path fill="#FFFFFF" d="M703.234,452.281l-1.62,4.078h-6.474l9.028-23.47h6.662l8.84,23.47h-6.506l-1.526-4.078H703.234z
		 M707.498,440.141h-0.06l-2.522,7.47h5.072L707.498,440.141z"/>
	<path fill="#FFFFFF" d="M721.574,432.889h9.338c5.042,0,8.53,2.334,8.53,7.72c0,5.542-2.988,7.968-8.31,7.968h-3.456v7.782h-6.102
		L721.574,432.889L721.574,432.889z M727.676,443.659h1.028c2.208,0,4.388,0,4.388-2.864c0-2.958-2.024-2.988-4.388-2.988h-1.028
		V443.659z"/>
	<path fill="#FFFFFF" d="M742.156,432.889h9.338c5.042,0,8.53,2.334,8.53,7.72c0,5.542-2.988,7.968-8.31,7.968h-3.456v7.782h-6.102
		L742.156,432.889L742.156,432.889z M748.258,443.659h1.028c2.208,0,4.388,0,4.388-2.864c0-2.958-2.024-2.988-4.388-2.988h-1.028
		V443.659z"/>
</g>
<g>
	<path fill="#FFFFFF" d="M928.338-18.555h8.654c6.538,0,11.922,5.136,11.922,11.736s-5.416,11.736-11.922,11.736h-8.654V-18.555z
		 M934.44-0.253h1.372c3.64,0,6.754-1.992,6.754-6.568c0-4.202-2.77-6.568-6.692-6.568h-1.434V-0.253z"/>
	<path fill="#FFFFFF" d="M957.73,0.837l-1.62,4.078h-6.472l9.026-23.47h6.662l8.84,23.47h-6.504l-1.528-4.078H957.73z
		 M961.994-11.303h-0.062l-2.52,7.47h5.074L961.994-11.303z"/>
	<path fill="#FFFFFF" d="M976.072-18.555h6.102l11.172,14.35h0.062v-14.35h6.102v23.47h-6.102l-11.172-14.38h-0.062v14.38h-6.102
		V-18.555z"/>
	<path fill="#FFFFFF" d="M1020.28-10.679c-1.242-1.682-3.266-2.584-5.352-2.584c-3.734,0-6.258,2.864-6.258,6.506
		c0,3.704,2.55,6.38,6.352,6.38c1.992,0,3.984-0.964,5.258-2.49v7.316c-2.024,0.622-3.484,1.088-5.382,1.088
		c-3.27,0-6.382-1.244-8.808-3.456c-2.586-2.334-3.77-5.384-3.77-8.872c0-3.206,1.214-6.288,3.458-8.592
		c2.304-2.366,5.632-3.796,8.934-3.796c1.96,0,3.766,0.436,5.57,1.182v7.318H1020.28z"/>
	<path fill="#FFFFFF" d="M1030.154-13.389v3.922h6.878v5.166h-6.878v4.046h7.254v5.166h-13.356v-23.47h13.356v5.166h-7.254V-13.389z
		"/>
	<path fill="#FFFFFF" d="M933.46,14.809h9.338c5.042,0,8.53,2.334,8.53,7.72c0,5.542-2.988,7.968-8.31,7.968h-3.458v7.782h-6.1
		V14.809z M939.56,25.579h1.028c2.21,0,4.39,0,4.39-2.864c0-2.958-2.024-2.988-4.39-2.988h-1.028V25.579z"/>
	<path fill="#FFFFFF" d="M957.714,34.201l-1.62,4.078h-6.472l9.026-23.47h6.662l8.84,23.47h-6.504l-1.528-4.078H957.714z
		 M961.978,22.061h-0.062l-2.52,7.47h5.074L961.978,22.061z"/>
	<path fill="#FFFFFF" d="M995.572,38.279h-7.594l-5.758-9.028h-0.062v9.028h-6.102v-23.47h9.122c4.636,0,8.152,2.21,8.152,7.222
		c0,3.238-1.804,6.04-5.132,6.63L995.572,38.279z M982.158,25.329h0.59c1.992,0,4.234-0.374,4.234-2.926s-2.242-2.926-4.234-2.926
		h-0.59V25.329z"/>
	<path fill="#FFFFFF" d="M1006.568,38.279h-6.102V19.977h-5.042v-5.168h16.188v5.168h-5.042v18.302H1006.568z"/>
	<path fill="#FFFFFF" d="M1011.24,14.809h7.316l4.39,6.382l4.386-6.382h7.316l-8.652,12.202v11.268h-6.102V27.011L1011.24,14.809z"
		/>
</g>
<path fill="#FFFFFF" d="M-289.404,696.573c-48.382,0-87.744-39.362-87.744-87.744s39.362-87.744,87.744-87.744
	s87.744,39.362,87.744,87.744S-241.022,696.573-289.404,696.573z M-289.404,537.085c-39.56,0-71.744,32.182-71.744,71.744
	s32.184,71.744,71.744,71.744s71.744-32.184,71.744-71.744S-249.844,537.085-289.404,537.085z"/>
<g>
	<path fill="#FFFFFF" d="M-346.292,598.059h9.338c5.042,0,8.528,2.334,8.528,7.72c0,5.542-2.988,7.968-8.31,7.968h-3.456v7.782h-6.1
		C-346.292,621.529-346.292,598.059-346.292,598.059z M-340.19,608.829h1.028c2.21,0,4.39,0,4.39-2.864
		c0-2.958-2.024-2.988-4.39-2.988h-1.028V608.829z"/>
	<path fill="#FFFFFF" d="M-310.8,607.117v-9.058h6.102v23.47h-6.102v-9.618h-8.808v9.618h-6.102v-23.47h6.102v9.058H-310.8z"/>
	<path fill="#FFFFFF" d="M-275.93,609.359c0,7.594-5.448,12.95-12.98,12.95s-12.98-5.354-12.98-12.95
		c0-7.098,6.226-12.078,12.98-12.078C-282.154,597.281-275.93,602.261-275.93,609.359z M-295.538,609.389
		c0,4.046,2.988,7.004,6.628,7.004c3.642,0,6.63-2.958,6.63-7.004c0-3.238-2.988-6.194-6.63-6.194
		C-292.55,603.195-295.538,606.153-295.538,609.389z"/>
	<path fill="#FFFFFF" d="M-273.09,598.059h6.102l11.174,14.35h0.062v-14.35h6.102v23.47h-6.102l-11.174-14.38h-0.062v14.38h-6.102
		C-273.09,621.529-273.09,598.059-273.09,598.059z"/>
	<path fill="#FFFFFF" d="M-239.556,603.225v3.922h6.878v5.166h-6.878v4.046h7.252v5.166h-13.354v-23.47h13.354v5.166h-7.252V603.225
		z"/>
</g>
<path fill="#FFFFFF" d="M142.652,424.079c-48.382,0-87.744-39.362-87.744-87.744s39.362-87.744,87.744-87.744
	s87.744,39.362,87.744,87.744S191.036,424.079,142.652,424.079z M142.652,264.591c-39.56,0-71.744,32.184-71.744,71.744
	s32.184,71.744,71.744,71.744s71.744-32.184,71.744-71.744S182.214,264.591,142.652,264.591z"/>
<g>
	<path fill="#FFFFFF" d="M85.766,325.565h9.338c5.042,0,8.53,2.334,8.53,7.72c0,5.542-2.988,7.968-8.31,7.968h-3.458v7.782h-6.1
		V325.565z M91.864,336.335h1.028c2.21,0,4.39,0,4.39-2.864c0-2.958-2.024-2.988-4.39-2.988h-1.028V336.335z"/>
	<path fill="#FFFFFF" d="M121.256,334.623v-9.058h6.102v23.47h-6.102v-9.618h-8.808v9.618h-6.102v-23.47h6.102v9.058H121.256z"/>
	<path fill="#FFFFFF" d="M156.126,336.865c0,7.594-5.448,12.95-12.98,12.95s-12.98-5.354-12.98-12.95
		c0-7.098,6.226-12.078,12.98-12.078C149.902,324.787,156.126,329.767,156.126,336.865z M136.518,336.897
		c0,4.046,2.988,7.004,6.628,7.004c3.642,0,6.63-2.958,6.63-7.004c0-3.238-2.988-6.194-6.63-6.194
		C139.506,330.701,136.518,333.659,136.518,336.897z"/>
	<path fill="#FFFFFF" d="M158.966,325.565h6.102l11.174,14.35h0.062v-14.35h6.102v23.47h-6.102l-11.174-14.38h-0.062v14.38h-6.102
		V325.565z"/>
	<path fill="#FFFFFF" d="M192.5,330.731v3.922h6.878v5.166H192.5v4.046h7.252v5.166h-13.354v-23.47h13.354v5.166H192.5V330.731z"/>
</g>
<path fill="#FFFFFF" d="M-64.836,579.743c-69.376,0-125.818-56.442-125.818-125.818s56.442-125.82,125.818-125.82
	s125.82,56.444,125.82,125.82S4.542,579.743-64.836,579.743z M-64.836,344.103c-60.554,0-109.818,49.266-109.818,109.82
	s49.264,109.818,109.818,109.818s109.82-49.264,109.82-109.818S-4.28,344.103-64.836,344.103z"/>
<path fill="#FFFFFF" d="M251.094-7.913c-61.834,0-112.138-50.306-112.138-112.138c0-61.834,50.304-112.14,112.138-112.14
	s112.138,50.306,112.138,112.14C363.232-58.219,312.928-7.913,251.094-7.913z M251.094-216.191
	c-53.012,0-96.138,43.128-96.138,96.14c0,53.01,43.126,96.138,96.138,96.138s96.138-43.128,96.138-96.138
	C347.232-173.063,304.106-216.191,251.094-216.191z"/>
<g>
	<path fill="#FFFFFF" d="M182.748-130.821h6.102l11.176,14.35h0.06v-14.35h6.102v23.47h-6.102l-11.174-14.38h-0.062v14.38h-6.102
		V-130.821z"/>
	<path fill="#FFFFFF" d="M234.958-119.521c0,7.594-5.448,12.95-12.978,12.95c-7.534,0-12.98-5.354-12.98-12.95
		c0-7.098,6.224-12.078,12.98-12.078C228.732-131.599,234.958-126.619,234.958-119.521z M215.348-119.491
		c0,4.046,2.988,7.004,6.63,7.004c3.64,0,6.628-2.958,6.628-7.004c0-3.238-2.988-6.194-6.628-6.194
		C218.336-125.685,215.348-122.727,215.348-119.491z"/>
	<path fill="#FFFFFF" d="M237.8-130.821h8.654c6.538,0,11.922,5.136,11.922,11.736s-5.416,11.736-11.922,11.736H237.8V-130.821z
		 M243.9-112.517h1.37c3.642,0,6.754-1.992,6.754-6.568c0-4.202-2.77-6.568-6.692-6.568H243.9V-112.517z"/>
	<path fill="#FFFFFF" d="M267.314-125.655v3.922h6.878v5.166h-6.878v4.046h7.252v5.166h-13.354v-23.466h13.354v5.166H267.314z"/>
	<path fill="#FFFFFF" d="M285.342-110.369c0,1.992-1.62,3.642-3.642,3.642s-3.64-1.65-3.64-3.642c0-2.024,1.618-3.642,3.64-3.642
		S285.342-112.393,285.342-110.369z"/>
	<path fill="#FFFFFF" d="M300.38-130.821v15.844c0,4.95-2.584,8.248-7.782,8.248c-2.616,0-4.638-1.306-6.04-3.456l3.518-3.704
		c0.684,0.934,1.65,1.992,2.458,1.992c1.804,0,1.742-2.148,1.742-3.456v-15.47h6.104V-130.821z"/>
	<path fill="#FFFFFF" d="M317.132-124.783c-1.122-0.934-2.552-1.556-4.046-1.556c-1.122,0-2.614,0.654-2.614,1.96
		c0,1.37,1.648,1.9,2.708,2.242l1.556,0.466c3.268,0.966,5.79,2.616,5.79,6.414c0,2.334-0.56,4.732-2.428,6.318
		c-1.836,1.556-4.294,2.21-6.66,2.21c-2.958,0-5.854-0.996-8.25-2.676l2.616-4.918c1.526,1.338,3.33,2.428,5.416,2.428
		c1.432,0,2.958-0.716,2.958-2.366c0-1.712-2.396-2.304-3.704-2.676c-3.83-1.09-6.352-2.086-6.352-6.63
		c0-4.762,3.392-7.876,8.094-7.876c2.366,0,5.26,0.748,7.346,1.93L317.132-124.783z"/>
</g>
<path fill="#FFFFFF" d="M-249.484,363.245c-48.38,0-87.742-39.362-87.742-87.744s39.362-87.744,87.742-87.744
	c48.382,0,87.744,39.362,87.744,87.744S-201.102,363.245-249.484,363.245z M-249.484,203.757c-39.558,0-71.742,32.184-71.742,71.744
	c0,39.56,32.184,71.744,71.742,71.744c39.56,0,71.744-32.184,71.744-71.744C-177.74,235.941-209.924,203.757-249.484,203.757z"/>
<g>
	<path fill="#FFFFFF" d="M-306.37,264.731h9.338c5.042,0,8.528,2.334,8.528,7.72c0,5.542-2.988,7.968-8.31,7.968h-3.456v7.782h-6.1
		V264.731z M-300.27,275.501h1.028c2.21,0,4.39,0,4.39-2.864c0-2.958-2.024-2.988-4.39-2.988h-1.028V275.501z"/>
	<path fill="#FFFFFF" d="M-270.88,273.789v-9.058h6.102v23.47h-6.102v-9.618h-8.808v9.618h-6.102v-23.47h6.102v9.058H-270.88
		L-270.88,273.789z"/>
	<path fill="#FFFFFF" d="M-236.008,276.031c0,7.594-5.448,12.95-12.98,12.95c-7.532,0-12.98-5.354-12.98-12.95
		c0-7.098,6.226-12.078,12.98-12.078C-242.232,263.953-236.008,268.933-236.008,276.031z M-255.618,276.061
		c0,4.046,2.988,7.004,6.628,7.004c3.642,0,6.63-2.958,6.63-7.004c0-3.238-2.988-6.194-6.63-6.194
		C-252.63,269.867-255.618,272.825-255.618,276.061z"/>
	<path fill="#FFFFFF" d="M-233.168,264.731h6.102l11.174,14.35h0.062v-14.35h6.102v23.47h-6.102l-11.174-14.38h-0.062v14.38h-6.102
		V264.731z"/>
	<path fill="#FFFFFF" d="M-199.636,269.897v3.922h6.878v5.166h-6.878v4.046h7.252v5.166h-13.354v-23.47h13.354v5.166h-7.252V269.897
		z"/>
</g>
<rect x="225.071" y="134.131" transform="matrix(-0.5771 -0.8167 0.8167 -0.5771 595.6164 592.6973)" fill="#FFFFFF" width="452.398" height="16"/>
<rect x="875.626" y="89.516" transform="matrix(-0.7673 -0.6413 0.6413 -0.7673 1493.6628 753.9679)" fill="#FFFFFF" width="16.002" height="32.932"/>
<rect x="826.024" y="2.301" transform="matrix(-0.1585 -0.9874 0.9874 -0.1585 947.682 845.2235)" fill="#FFFFFF" width="16.001" height="32.931"/>
<rect x="837.312" y="-87.724" transform="matrix(-0.8493 -0.5279 0.5279 -0.8493 1620.9814 303.2751)" fill="#FFFFFF" width="32.93" height="15.998"/>
<rect x="916.757" y="-149.087" transform="matrix(-0.2948 -0.9556 0.9556 -0.2948 1343.1666 709.061)" fill="#FFFFFF" width="32.928" height="15.999"/>
<rect x="1025.494" y="-151.673" transform="matrix(-0.9147 -0.4041 0.4041 -0.9147 2033.4847 158.7557)" fill="#FFFFFF" width="16.002" height="32.93"/>
<rect x="1097.29" y="-81.397" transform="matrix(-0.4253 -0.9051 0.9051 -0.4253 1634.1169 907.8095)" fill="#FFFFFF" width="16.001" height="32.931"/>
<rect x="1096.958" y="27.103" transform="matrix(-0.9621 -0.2726 0.2726 -0.9621 2175.1045 372.4032)" fill="#FFFFFF" width="32.929" height="16"/>
<rect x="1037.565" y="107.953" transform="matrix(-0.5475 -0.8368 0.8368 -0.5475 1534.0826 1061.4554)" fill="#FFFFFF" width="32.93" height="16.002"/>
<g>
	<path fill="#FFFFFF" d="M805.704,380.479l-3.304-15.656c3.746-0.79,7.548-1.69,11.302-2.672l4.054,15.476
		C813.754,378.677,809.698,379.635,805.704,380.479z"/>
	<path fill="#FFFFFF" d="M840.074,370.701l-5.418-15.054c6.85-2.464,13.678-5.274,20.294-8.344l6.734,14.516
		C854.64,365.087,847.37,368.077,840.074,370.701z M882.42,351.053l-7.996-13.86c6.326-3.65,12.546-7.622,18.488-11.802
		l9.208,13.086C895.79,342.933,889.16,347.163,882.42,351.053z M920.804,322.993l-11.692-10.922c2.128-2.28,3.844-4.52,5.24-6.844
		c1.668-2.774,2.862-5.838,3.452-8.86l15.704,3.062c-0.942,4.832-2.822,9.688-5.442,14.042
		C926.084,316.767,923.71,319.881,920.804,322.993z M914.466,281.421c-2.038-2.636-4.734-5.126-7.588-7.766
		c-2.726-2.518-5.546-5.122-8.07-8.114l12.23-10.316c1.88,2.23,4.22,4.39,6.696,6.678c3.212,2.968,6.538,6.038,9.392,9.732
		L914.466,281.421z M907.326,241.323l-15.5-3.96c2.298-9.002,8.134-16.784,12.958-22.556l12.278,10.262
		C913.612,229.195,908.848,235.371,907.326,241.323z M932.02,207.753l-12.55-9.922c4.428-5.602,8.542-11.586,12.232-17.788
		l13.75,8.182C941.402,195.029,936.886,201.601,932.02,207.753z M956.206,167.123l-14.696-6.326
		c2.846-6.612,5.28-13.46,7.234-20.356l15.394,4.366C961.994,152.367,959.326,159.875,956.206,167.123z"/>
	<path fill="#FFFFFF" d="M969.112,121.529l-15.836-2.29c0.542-3.76,0.958-7.584,1.232-11.366l15.958,1.156
		C970.164,113.189,969.71,117.393,969.112,121.529z"/>
</g>
<g>
	<path fill="#FFFFFF" d="M-124.758,430.451h6.006l4.764,12.544l5.042-12.544h6.07l3.548,23.47h-6.102l-1.71-13.51h-0.062
		l-5.634,13.51h-2.428l-5.386-13.51h-0.062l-1.96,13.51h-6.068L-124.758,430.451z"/>
	<path fill="#FFFFFF" d="M-90.758,449.845l-1.62,4.078h-6.472l9.026-23.47h6.662l8.84,23.47h-6.506l-1.526-4.078H-90.758z
		 M-86.494,437.705h-0.062l-2.52,7.47h5.074L-86.494,437.705z"/>
	<path fill="#FFFFFF" d="M-59.528,436.491c-1.122-0.934-2.554-1.556-4.046-1.556c-1.122,0-2.618,0.654-2.618,1.96
		c0,1.372,1.652,1.9,2.71,2.242l1.554,0.466c3.27,0.964,5.79,2.616,5.79,6.412c0,2.334-0.558,4.732-2.426,6.318
		c-1.836,1.556-4.296,2.21-6.66,2.21c-2.96,0-5.856-0.996-8.25-2.678l2.614-4.918c1.528,1.34,3.332,2.428,5.418,2.428
		c1.43,0,2.958-0.714,2.958-2.366c0-1.71-2.398-2.302-3.708-2.676c-3.828-1.09-6.348-2.086-6.348-6.63
		c0-4.764,3.39-7.876,8.094-7.876c2.364,0,5.258,0.746,7.344,1.93L-59.528,436.491z"/>
	<path fill="#FFFFFF" d="M-43.9,453.923h-6.102v-18.302h-5.04v-5.168h16.184v5.168H-43.9V453.923z"/>
	<path fill="#FFFFFF" d="M-30.54,435.619v3.922h6.878v5.168h-6.878v4.046h7.254v5.166h-13.356v-23.47h13.356v5.168L-30.54,435.619
		L-30.54,435.619z"/>
	<path fill="#FFFFFF" d="M0.002,453.923h-7.598l-5.758-9.028h-0.062v9.028h-6.102v-23.47h9.122c4.636,0,8.156,2.21,8.156,7.222
		c0,3.236-1.804,6.04-5.136,6.63L0.002,453.923z M-13.416,440.973h0.594c1.992,0,4.23-0.374,4.23-2.926s-2.238-2.926-4.23-2.926
		h-0.594V440.973z"/>
	<path fill="#FFFFFF" d="M-121.722,463.817h9.338c5.042,0,8.53,2.334,8.53,7.718c0,5.542-2.988,7.968-8.31,7.968h-3.458v7.784h-6.1
		V463.817z M-115.622,474.587h1.028c2.21,0,4.39,0,4.39-2.864c0-2.958-2.024-2.988-4.39-2.988h-1.028V474.587z"/>
	<path fill="#FFFFFF" d="M-86.232,472.875v-9.058h6.102v23.47h-6.102v-9.62h-8.808v9.62h-6.102v-23.47h6.102v9.058H-86.232z"/>
	<path fill="#FFFFFF" d="M-51.36,475.115c0,7.596-5.446,12.95-12.98,12.95c-7.532,0-12.98-5.354-12.98-12.95
		c0-7.098,6.226-12.078,12.98-12.078C-57.584,463.037-51.36,468.017-51.36,475.115z M-70.97,475.147
		c0,4.046,2.988,7.004,6.628,7.004c3.644,0,6.632-2.958,6.632-7.004c0-3.236-2.988-6.194-6.632-6.194
		C-67.982,468.953-70.97,471.911-70.97,475.147z"/>
	<path fill="#FFFFFF" d="M-48.522,463.817h6.102l11.176,14.35h0.062v-14.35h6.102v23.47h-6.102l-11.176-14.38h-0.062v14.38h-6.102
		V463.817z"/>
	<path fill="#FFFFFF" d="M-14.986,468.985v3.922h6.878v5.166h-6.878v4.046h7.25v5.168h-13.352v-23.47h13.352v5.168L-14.986,468.985
		L-14.986,468.985z"/>
</g>
<rect x="52.082" y="-77.599" transform="matrix(-0.8728 -0.488 0.488 -0.8728 42.2874 298.8614)" fill="#FFFFFF" width="15.999" height="443.041"/>
<rect x="45.63" y="361.395" transform="matrix(-0.6021 -0.7984 0.7984 -0.6021 -219.2145 655.105)" fill="#FFFFFF" width="15.998" height="41.561"/>
<rect x="27.866" y="535.676" transform="matrix(-0.86 -0.5103 0.5103 -0.86 -123.2964 1053.5266)" fill="#FFFFFF" width="110.01" height="16.002"/>
<rect x="-209" y="497.877" transform="matrix(-0.5149 -0.8572 0.8572 -0.5149 -762.5816 637.2217)" fill="#FFFFFF" width="15.997" height="72.983"/>
<rect x="-196.964" y="339.222" transform="matrix(-0.6619 -0.7496 0.7496 -0.6619 -537.8513 451.8444)" fill="#FFFFFF" width="59.88" height="15.998"/>
</svg>
